<svg width="570" height="473" viewBox="0 0 570 473" fill="none" xmlns="http://www.w3.org/2000/svg">
<path d="M260.075 225.976C187.398 226.239 161.577 214.279 157.75 208.266L161.03 165.303C143.429 166.724 106.522 161.892 99.7008 131.195C89.7307 73.9982 125.719 60.5736 144.96 61.0109C149.42 32.4125 192.296 33.3526 213.176 37.3975C219.845 25.1536 241.447 0.534457 274.505 0.00971724C306.836 -0.503465 327.581 19.4349 334.41 30.13C339.892 30.1857 349.537 30.3915 365.351 30.8383C423.4 32.4781 436.847 96.1029 415.201 135.131C397.885 166.353 369.942 171.097 358.136 169.567V208.266C355.731 214.06 332.751 225.714 260.075 225.976Z" fill="#222222"/>
<path d="M161.03 146.281C145.069 153.059 113.475 155.53 114.787 111.189C119.597 123.87 135.58 148.643 161.03 146.281Z" fill="#F1F1F1"/>
<path d="M334.85 197.116C270.57 185.571 216.018 190.338 196.778 194.164C190.481 182.882 191.968 159.728 193.498 149.561C219.473 148.249 233.838 134.147 237.773 127.259C242.146 129.883 257.845 134.343 285.656 131.195C313.467 128.047 330.04 108.675 334.85 99.3826C290.772 125.357 247.175 107.582 230.886 95.447C227.738 101.219 232.198 105.286 234.822 106.598C206.223 121.291 180.926 115.781 171.853 111.189C175.788 116.174 183.769 121.793 187.267 123.98C183.331 130.867 157.75 139.722 140.04 123.98C125.872 111.386 129.327 91.8394 132.825 83.6403C132.825 106.204 144.632 111.408 150.535 111.189C154.033 94.4631 165.097 61.0109 181.364 61.0109C197.631 61.0109 207.382 64.9464 210.224 66.9142C215.4 51.7186 235.502 21.3929 274.505 21.6553C313.508 21.9177 333.61 48.0017 338.786 61.0109V49.8601C366.335 35.4297 407.33 56.4194 407.33 88.2318C406.805 140.444 374.315 141.253 358.136 135.131C332.686 138.279 332.008 177.766 334.85 197.116Z" fill="#F1F1F1"/>
<path d="M210.224 213.842C238.976 211.983 304.153 208.266 334.85 208.266C329.166 213.295 296.282 221.45 210.224 213.842Z" fill="#F1F1F1"/>
<path d="M302.71 323.053L259.419 349.946L294.511 375.856C294.402 374.325 295.889 372.576 302.71 372.576C311.237 372.576 308.614 378.479 316.157 378.479C322.191 378.479 329.603 373.669 332.555 371.264L326.979 363.065C328.401 363.065 336.49 360.113 344.034 366.673C344.034 366.673 371.582 409.636 384.373 429.969C407.221 418.053 441.111 402.988 493.913 363.065C526.184 338.665 558.522 308.295 570 295.505C559.943 285.01 535.564 259.429 523.757 246.31C508.999 229.912 492.929 209.578 492.929 209.578C482.434 203.347 479.81 201.051 469.643 204.331C461.51 206.955 457.509 217.887 457.837 221.713C445.702 231.005 417.694 252.213 402.739 262.708C387.784 273.203 333.757 303.813 308.614 317.806V332.236L302.71 323.053Z" fill="#222222"/>
<circle cx="478.171" cy="220.401" r="6.55926" fill="#F1F1F1"/>
<path d="M517.526 325.021C488.665 357.555 412.359 401.109 378.47 418.819L365.679 399.797C386.669 396.517 402.739 395.205 517.526 325.021Z" fill="#F1F1F1"/>
<path d="M567.049 291.569C560.227 300.227 544.747 310.044 538.188 313.543C538.188 313.543 549.011 292.881 560.161 285.01L567.049 291.569Z" fill="#F1F1F1"/>
<path d="M142.992 433.577C142.205 419.147 171.306 401.765 185.299 395.533L194.81 401.437L201.042 395.533C201.042 395.533 207.601 401.437 213.176 401.437C222.031 392.254 233.182 395.205 235.478 398.485L251.876 418.819C246.41 422.098 233.829 427.527 229.246 429.641C220.719 433.577 183.004 444.728 178.74 448.663C174.477 452.599 177.1 461.782 172.837 464.734C168.573 467.685 158.078 466.373 150.535 459.814C142.992 453.255 143.976 451.615 142.992 433.577Z" fill="#222222"/>
<path d="M242.365 406.684C241.6 407.887 228.787 414.752 191.531 427.346C213.832 427.346 236.899 417.07 245.973 411.603L242.365 406.684Z" fill="#F1F1F1"/>
<path d="M230.558 340.108L225.639 353.226L234.822 343.059C272.209 367.438 350.068 418.491 362.399 427.674C374.731 436.857 372.348 450.74 369.615 456.534C369.615 456.534 367.319 466.045 357.808 470.965C348.297 475.884 338.458 469.653 338.458 469.653C332.883 462.766 335.638 462.307 333.539 456.534C331.44 450.762 317.14 446.477 310.253 445.056C300.086 440.902 278.31 431.609 272.537 427.674C265.322 422.754 258.107 417.507 255.155 410.292C252.794 404.52 243.021 395.424 238.429 391.598L226.295 387.006C226.295 387.006 211.864 396.517 207.601 383.727L213.176 373.232L192.186 391.598C143.648 357.271 72.1519 317.806 52.8021 298.456C33.4522 279.106 27.8769 268.284 21.9735 259.101C17.2509 251.754 4.48216 223.025 0 210.562C13.2278 215.154 45.5213 227.747 58.3774 233.52C71.2336 239.292 93.0322 249.918 102.325 254.509L230.558 340.108Z" fill="#222222"/>
<path d="M87.2382 301.408C35.748 266.316 9.83887 220.729 9.83887 220.729C9.83887 220.729 27.9487 259.262 46.2428 281.074C63.2969 301.408 147.693 353.638 190.875 376.183L87.2382 301.408Z" fill="#F1F1F1"/>
<circle cx="298.119" cy="404.388" r="4.26352" fill="#F1F1F1"/>
<circle cx="298.119" cy="404.388" r="4.26352" fill="#F1F1F1"/>
<circle cx="298.119" cy="404.388" r="4.26352" fill="#F1F1F1"/>
<circle cx="349.937" cy="437.185" r="4.26352" fill="#F1F1F1"/>
<circle cx="349.937" cy="437.185" r="4.26352" fill="#F1F1F1"/>
<circle cx="349.937" cy="437.185" r="4.26352" fill="#F1F1F1"/>
<circle cx="238.429" cy="362.409" r="4.26352" fill="#F1F1F1"/>
<circle cx="238.429" cy="362.409" r="4.26352" fill="#F1F1F1"/>
<circle cx="238.429" cy="362.409" r="4.26352" fill="#F1F1F1"/>
<path d="M358.464 462.766C352.167 465.127 344.252 463.094 342.066 461.126C342.94 464.078 348.166 468.669 354.2 468.669C360.235 468.669 366.991 459.267 369.615 454.567C368.521 456.316 364.761 460.404 358.464 462.766Z" fill="#F1F1F1"/>
<path d="M288.28 422.098C278.31 417.113 266.197 405.154 261.387 399.797C263.682 403.732 269.061 412.85 272.209 417.835C276.145 424.066 288.28 430.297 299.102 432.265C309.925 434.233 323.372 438.824 328.291 442.76C332.227 445.908 338.239 450.631 340.754 452.599C338.458 448.335 331.768 438.759 323.372 434.561C312.877 429.314 300.742 428.33 288.28 422.098Z" fill="#F1F1F1"/>
<path d="M290.575 242.374C285.765 239.204 273.587 235.422 263.354 245.654C253.122 233.585 239.413 238.439 233.838 242.374C226.513 250.683 209.765 267.956 198.746 267.956C187.726 267.956 181.91 258.335 180.708 253.853C180.708 272.875 188.776 292.553 211.864 292.553C234.953 292.553 255.811 279.434 263.354 272.875C274.505 280.856 290.575 297.472 323.044 291.241C344.988 287.03 346.657 260.522 344.033 251.23C344.689 254.946 341.606 265.463 329.275 267.3C316.944 269.136 301.726 253.853 290.575 242.374Z" fill="#222222"/>
<path d="M290.903 253.197C285.394 247.163 275.926 249.371 272.537 249.918L285.328 257.133C285.328 257.133 296.807 267.628 303.038 273.203C309.269 278.778 324.574 275.608 324.356 273.203C322.825 274.515 315.828 273.072 310.581 269.923C304.022 265.988 296.413 259.232 290.903 253.197Z" fill="#F1F1F1"/>
</svg>
