<svg width="576" height="557" viewBox="0 0 576 557" fill="none" xmlns="http://www.w3.org/2000/svg">
<path d="M148.898 140.521C152.313 153.997 158.994 173.843 192.105 197.25C192.105 197.25 199.358 180.699 204.398 169.404C209.439 158.108 221.295 144.276 220.901 117.542C220.507 90.8077 190.293 60.9474 175.236 49.359C156.423 73.3656 137.876 97.0325 148.898 140.521Z" fill="#59AA08"/>
<path d="M160.224 125.258C158.555 137.925 159.473 174.853 192.499 197.558C203.191 183.915 225.684 162.581 221.38 118.552C218.421 88.2828 202.168 71.7346 188.393 60.9403C167.421 87.7019 162.727 106.257 160.224 125.258Z" fill="#6CBA0E"/>
<path d="M132.554 184.885C156.247 183.809 162.186 188.414 185.852 204.419C175.366 217.8 154.086 244.955 122.912 243.394C107.325 242.613 102.268 240.556 74.719 218.967C84.5881 206.373 95.0096 186.59 132.554 184.885Z" fill="#6CBA0E"/>
<path d="M137.298 182.885C131.99 183.173 96.073 183.612 75.7293 218.488L89.1101 228.974C97.4302 220.249 118.18 201.444 134.618 196.031C151.057 190.618 175.624 199.367 185.852 204.419C163.813 187.148 141.543 182.655 137.298 182.885Z" fill="#59AA08"/>
<circle cx="333.062" cy="314.063" r="173" transform="rotate(-51.9159 333.062 314.063)" fill="#FB9700"/>
<path fill-rule="evenodd" clip-rule="evenodd" d="M208.723 193.756C162.093 267.856 178.138 366.711 248.558 421.896C318.978 477.081 418.803 469.027 479.606 406.034C476.438 411.068 472.98 415.988 469.231 420.772C410.297 495.977 301.557 509.166 226.352 450.232C151.148 391.298 137.958 282.558 196.893 207.353C200.642 202.569 204.593 198.036 208.723 193.756Z" fill="#F58B00"/>
</svg>
